<?xml version="1.0" encoding="UTF-8" standalone="no"?>
<!DOCTYPE svg PUBLIC "-//W3C//DTD SVG 1.1//EN"
 "http://www.w3.org/Graphics/SVG/1.1/DTD/svg11.dtd">
<!-- Generated by graphviz version 2.40.1 (20161225.0304)
 -->
<!-- Title: %3 Pages: 1 -->
<svg width="1108pt" height="404pt"
 viewBox="0.00 0.00 1107.77 404.00" xmlns="http://www.w3.org/2000/svg" xmlns:xlink="http://www.w3.org/1999/xlink">
<g id="graph0" class="graph" transform="scale(1 1) rotate(0) translate(4 400)">
<title>%3</title>
<polygon fill="#ffffff" stroke="transparent" points="-4,4 -4,-400 1103.7682,-400 1103.7682,4 -4,4"/>
<!-- [root] aws_instance.webserver (expand) -->
<g id="node1" class="node">
<title>[root] aws_instance.webserver (expand)</title>
<polygon fill="none" stroke="#000000" points="156.7682,-252 8.7682,-252 8.7682,-216 156.7682,-216 156.7682,-252"/>
<text text-anchor="middle" x="82.7682" y="-230.3" font-family="Times,serif" font-size="14.00" fill="#000000">aws_instance.webserver</text>
</g>
<!-- [root] aws_key_pair.webserver&#45;key&#45;pair (expand) -->
<g id="node3" class="node">
<title>[root] aws_key_pair.webserver&#45;key&#45;pair (expand)</title>
<polygon fill="none" stroke="#000000" points="256.7682,-108 56.7682,-108 56.7682,-72 256.7682,-72 256.7682,-108"/>
<text text-anchor="middle" x="156.7682" y="-86.3" font-family="Times,serif" font-size="14.00" fill="#000000">aws_key_pair.webserver&#45;key&#45;pair</text>
</g>
<!-- [root] aws_instance.webserver (expand)&#45;&gt;[root] aws_key_pair.webserver&#45;key&#45;pair (expand) -->
<g id="edge1" class="edge">
<title>[root] aws_instance.webserver (expand)&#45;&gt;[root] aws_key_pair.webserver&#45;key&#45;pair (expand)</title>
<path fill="none" stroke="#000000" d="M83.8306,-215.702C85.5959,-196.7333 90.2905,-166.7304 102.7682,-144 108.591,-133.3929 117.1253,-123.4855 125.6977,-115.1272"/>
<polygon fill="#000000" stroke="#000000" points="128.2159,-117.5654 133.1736,-108.202 123.4589,-112.43 128.2159,-117.5654"/>
</g>
<!-- [root] aws_security_group.sg&#45;allow&#45;web&#45;ssh (expand) -->
<g id="node4" class="node">
<title>[root] aws_security_group.sg&#45;allow&#45;web&#45;ssh (expand)</title>
<polygon fill="none" stroke="#000000" points="534.7682,-180 310.7682,-180 310.7682,-144 534.7682,-144 534.7682,-180"/>
<text text-anchor="middle" x="422.7682" y="-158.3" font-family="Times,serif" font-size="14.00" fill="#000000">aws_security_group.sg&#45;allow&#45;web&#45;ssh</text>
</g>
<!-- [root] aws_instance.webserver (expand)&#45;&gt;[root] aws_security_group.sg&#45;allow&#45;web&#45;ssh (expand) -->
<g id="edge2" class="edge">
<title>[root] aws_instance.webserver (expand)&#45;&gt;[root] aws_security_group.sg&#45;allow&#45;web&#45;ssh (expand)</title>
<path fill="none" stroke="#000000" d="M156.9748,-217.8822C159.9444,-217.245 162.8843,-216.6157 165.7682,-216 218.849,-204.6678 278.1388,-192.1975 326.3838,-182.0983"/>
<polygon fill="#000000" stroke="#000000" points="327.1211,-185.5199 336.1922,-180.0458 325.6874,-178.6683 327.1211,-185.5199"/>
</g>
<!-- [root] aws_subnet.webserver_subnet (expand) -->
<g id="node8" class="node">
<title>[root] aws_subnet.webserver_subnet (expand)</title>
<polygon fill="none" stroke="#000000" points="292.2682,-180 111.2682,-180 111.2682,-144 292.2682,-144 292.2682,-180"/>
<text text-anchor="middle" x="201.7682" y="-158.3" font-family="Times,serif" font-size="14.00" fill="#000000">aws_subnet.webserver_subnet</text>
</g>
<!-- [root] aws_instance.webserver (expand)&#45;&gt;[root] aws_subnet.webserver_subnet (expand) -->
<g id="edge3" class="edge">
<title>[root] aws_instance.webserver (expand)&#45;&gt;[root] aws_subnet.webserver_subnet (expand)</title>
<path fill="none" stroke="#000000" d="M112.797,-215.8314C128.0178,-206.6221 146.681,-195.3301 162.9765,-185.4706"/>
<polygon fill="#000000" stroke="#000000" points="165.0051,-188.3341 171.7491,-180.1628 161.3814,-182.345 165.0051,-188.3341"/>
</g>
<!-- [root] aws_internet_gateway.gw (expand) -->
<g id="node2" class="node">
<title>[root] aws_internet_gateway.gw (expand)</title>
<polygon fill="none" stroke="#000000" points="1099.7682,-252 941.7682,-252 941.7682,-216 1099.7682,-216 1099.7682,-252"/>
<text text-anchor="middle" x="1020.7682" y="-230.3" font-family="Times,serif" font-size="14.00" fill="#000000">aws_internet_gateway.gw</text>
</g>
<!-- [root] aws_vpc.webserver&#45;vpc (expand) -->
<g id="node9" class="node">
<title>[root] aws_vpc.webserver&#45;vpc (expand)</title>
<polygon fill="none" stroke="#000000" points="459.2682,-108 312.2682,-108 312.2682,-72 459.2682,-72 459.2682,-108"/>
<text text-anchor="middle" x="385.7682" y="-86.3" font-family="Times,serif" font-size="14.00" fill="#000000">aws_vpc.webserver&#45;vpc</text>
</g>
<!-- [root] aws_internet_gateway.gw (expand)&#45;&gt;[root] aws_vpc.webserver&#45;vpc (expand) -->
<g id="edge4" class="edge">
<title>[root] aws_internet_gateway.gw (expand)&#45;&gt;[root] aws_vpc.webserver&#45;vpc (expand)</title>
<path fill="none" stroke="#000000" d="M941.629,-216.0535C821.0506,-188.7097 592.3838,-136.8546 469.2612,-108.9338"/>
<polygon fill="#000000" stroke="#000000" points="470.0212,-105.5174 459.4947,-106.7191 468.473,-112.344 470.0212,-105.5174"/>
</g>
<!-- [root] provider[&quot;registry.terraform.io/hashicorp/aws&quot;] -->
<g id="node10" class="node">
<title>[root] provider[&quot;registry.terraform.io/hashicorp/aws&quot;]</title>
<polygon fill="none" stroke="#000000" points="252.7682,-36 .2315,-18 252.7682,0 505.305,-18 252.7682,-36"/>
<text text-anchor="middle" x="252.7682" y="-14.3" font-family="Times,serif" font-size="14.00" fill="#000000">provider[&quot;registry.terraform.io/hashicorp/aws&quot;]</text>
</g>
<!-- [root] aws_key_pair.webserver&#45;key&#45;pair (expand)&#45;&gt;[root] provider[&quot;registry.terraform.io/hashicorp/aws&quot;] -->
<g id="edge5" class="edge">
<title>[root] aws_key_pair.webserver&#45;key&#45;pair (expand)&#45;&gt;[root] provider[&quot;registry.terraform.io/hashicorp/aws&quot;]</title>
<path fill="none" stroke="#000000" d="M180.9931,-71.8314C193.6887,-62.3097 209.3529,-50.5615 222.8053,-40.4722"/>
<polygon fill="#000000" stroke="#000000" points="224.9492,-43.2393 230.8492,-34.4393 220.7492,-37.6393 224.9492,-43.2393"/>
</g>
<!-- [root] aws_security_group.sg&#45;allow&#45;web&#45;ssh (expand)&#45;&gt;[root] aws_vpc.webserver&#45;vpc (expand) -->
<g id="edge6" class="edge">
<title>[root] aws_security_group.sg&#45;allow&#45;web&#45;ssh (expand)&#45;&gt;[root] aws_vpc.webserver&#45;vpc (expand)</title>
<path fill="none" stroke="#000000" d="M413.4316,-143.8314C409.344,-135.8771 404.4579,-126.369 399.9373,-117.5723"/>
<polygon fill="#000000" stroke="#000000" points="402.9144,-115.7078 395.2306,-108.4133 396.6883,-118.9074 402.9144,-115.7078"/>
</g>
<!-- [root] aws_security_group_rule.egress&#45;rule&#45;all (expand) -->
<g id="node5" class="node">
<title>[root] aws_security_group_rule.egress&#45;rule&#45;all (expand)</title>
<polygon fill="none" stroke="#000000" points="408.7682,-252 174.7682,-252 174.7682,-216 408.7682,-216 408.7682,-252"/>
<text text-anchor="middle" x="291.7682" y="-230.3" font-family="Times,serif" font-size="14.00" fill="#000000">aws_security_group_rule.egress&#45;rule&#45;all</text>
</g>
<!-- [root] aws_security_group_rule.egress&#45;rule&#45;all (expand)&#45;&gt;[root] aws_security_group.sg&#45;allow&#45;web&#45;ssh (expand) -->
<g id="edge7" class="edge">
<title>[root] aws_security_group_rule.egress&#45;rule&#45;all (expand)&#45;&gt;[root] aws_security_group.sg&#45;allow&#45;web&#45;ssh (expand)</title>
<path fill="none" stroke="#000000" d="M324.8251,-215.8314C341.7359,-206.5368 362.5068,-195.1208 380.5624,-185.1971"/>
<polygon fill="#000000" stroke="#000000" points="382.6442,-188.0468 389.722,-180.1628 379.2726,-181.9122 382.6442,-188.0468"/>
</g>
<!-- [root] aws_security_group_rule.ingress&#45;rule&#45;22 (expand) -->
<g id="node6" class="node">
<title>[root] aws_security_group_rule.ingress&#45;rule&#45;22 (expand)</title>
<polygon fill="none" stroke="#000000" points="666.2682,-252 427.2682,-252 427.2682,-216 666.2682,-216 666.2682,-252"/>
<text text-anchor="middle" x="546.7682" y="-230.3" font-family="Times,serif" font-size="14.00" fill="#000000">aws_security_group_rule.ingress&#45;rule&#45;22</text>
</g>
<!-- [root] aws_security_group_rule.ingress&#45;rule&#45;22 (expand)&#45;&gt;[root] aws_security_group.sg&#45;allow&#45;web&#45;ssh (expand) -->
<g id="edge8" class="edge">
<title>[root] aws_security_group_rule.ingress&#45;rule&#45;22 (expand)&#45;&gt;[root] aws_security_group.sg&#45;allow&#45;web&#45;ssh (expand)</title>
<path fill="none" stroke="#000000" d="M515.4778,-215.8314C499.4706,-206.5368 479.8096,-195.1208 462.7188,-185.1971"/>
<polygon fill="#000000" stroke="#000000" points="464.4541,-182.1575 454.0487,-180.1628 460.9391,-188.211 464.4541,-182.1575"/>
</g>
<!-- [root] aws_security_group_rule.ingress&#45;rule&#45;80 (expand) -->
<g id="node7" class="node">
<title>[root] aws_security_group_rule.ingress&#45;rule&#45;80 (expand)</title>
<polygon fill="none" stroke="#000000" points="923.2682,-252 684.2682,-252 684.2682,-216 923.2682,-216 923.2682,-252"/>
<text text-anchor="middle" x="803.7682" y="-230.3" font-family="Times,serif" font-size="14.00" fill="#000000">aws_security_group_rule.ingress&#45;rule&#45;80</text>
</g>
<!-- [root] aws_security_group_rule.ingress&#45;rule&#45;80 (expand)&#45;&gt;[root] aws_security_group.sg&#45;allow&#45;web&#45;ssh (expand) -->
<g id="edge9" class="edge">
<title>[root] aws_security_group_rule.ingress&#45;rule&#45;80 (expand)&#45;&gt;[root] aws_security_group.sg&#45;allow&#45;web&#45;ssh (expand)</title>
<path fill="none" stroke="#000000" d="M708.1176,-215.9243C653.3245,-205.5697 584.476,-192.5589 528.135,-181.9118"/>
<polygon fill="#000000" stroke="#000000" points="528.6037,-178.4385 518.1277,-180.0207 527.3038,-185.3168 528.6037,-178.4385"/>
</g>
<!-- [root] aws_subnet.webserver_subnet (expand)&#45;&gt;[root] aws_vpc.webserver&#45;vpc (expand) -->
<g id="edge10" class="edge">
<title>[root] aws_subnet.webserver_subnet (expand)&#45;&gt;[root] aws_vpc.webserver&#45;vpc (expand)</title>
<path fill="none" stroke="#000000" d="M248.1992,-143.8314C273.1362,-134.0734 304.0491,-121.977 330.2508,-111.7242"/>
<polygon fill="#000000" stroke="#000000" points="331.6341,-114.9414 339.6712,-108.038 329.0833,-108.4227 331.6341,-114.9414"/>
</g>
<!-- [root] aws_vpc.webserver&#45;vpc (expand)&#45;&gt;[root] provider[&quot;registry.terraform.io/hashicorp/aws&quot;] -->
<g id="edge11" class="edge">
<title>[root] aws_vpc.webserver&#45;vpc (expand)&#45;&gt;[root] provider[&quot;registry.terraform.io/hashicorp/aws&quot;]</title>
<path fill="none" stroke="#000000" d="M352.2067,-71.8314C333.6056,-61.7616 310.4046,-49.2016 291.0929,-38.7472"/>
<polygon fill="#000000" stroke="#000000" points="292.7043,-35.6396 282.244,-33.9568 289.3718,-41.7955 292.7043,-35.6396"/>
</g>
<!-- [root] meta.count&#45;boundary (EachMode fixup) -->
<g id="node11" class="node">
<title>[root] meta.count&#45;boundary (EachMode fixup)</title>
<ellipse fill="none" stroke="#000000" cx="336.7682" cy="-306" rx="176.5689" ry="18"/>
<text text-anchor="middle" x="336.7682" y="-302.3" font-family="Times,serif" font-size="14.00" fill="#000000">[root] meta.count&#45;boundary (EachMode fixup)</text>
</g>
<!-- [root] meta.count&#45;boundary (EachMode fixup)&#45;&gt;[root] aws_instance.webserver (expand) -->
<g id="edge12" class="edge">
<title>[root] meta.count&#45;boundary (EachMode fixup)&#45;&gt;[root] aws_instance.webserver (expand)</title>
<path fill="none" stroke="#000000" d="M276.8954,-289.0282C240.9477,-278.8383 194.9306,-265.7941 156.7225,-254.9634"/>
<polygon fill="#000000" stroke="#000000" points="157.2548,-251.4765 146.6793,-252.1165 155.3457,-258.2111 157.2548,-251.4765"/>
</g>
<!-- [root] meta.count&#45;boundary (EachMode fixup)&#45;&gt;[root] aws_internet_gateway.gw (expand) -->
<g id="edge13" class="edge">
<title>[root] meta.count&#45;boundary (EachMode fixup)&#45;&gt;[root] aws_internet_gateway.gw (expand)</title>
<path fill="none" stroke="#000000" d="M464.3243,-293.5045C483.8955,-291.631 503.8697,-289.7441 522.7682,-288 701.6267,-271.4936 750.0193,-278.1199 931.5334,-252.0893"/>
<polygon fill="#000000" stroke="#000000" points="932.2938,-255.5158 941.6891,-250.619 931.2908,-248.588 932.2938,-255.5158"/>
</g>
<!-- [root] meta.count&#45;boundary (EachMode fixup)&#45;&gt;[root] aws_security_group_rule.egress&#45;rule&#45;all (expand) -->
<g id="edge14" class="edge">
<title>[root] meta.count&#45;boundary (EachMode fixup)&#45;&gt;[root] aws_security_group_rule.egress&#45;rule&#45;all (expand)</title>
<path fill="none" stroke="#000000" d="M325.4128,-287.8314C320.3357,-279.7079 314.2456,-269.9637 308.6506,-261.0118"/>
<polygon fill="#000000" stroke="#000000" points="311.5446,-259.0383 303.2765,-252.4133 305.6086,-262.7483 311.5446,-259.0383"/>
</g>
<!-- [root] meta.count&#45;boundary (EachMode fixup)&#45;&gt;[root] aws_security_group_rule.ingress&#45;rule&#45;22 (expand) -->
<g id="edge15" class="edge">
<title>[root] meta.count&#45;boundary (EachMode fixup)&#45;&gt;[root] aws_security_group_rule.ingress&#45;rule&#45;22 (expand)</title>
<path fill="none" stroke="#000000" d="M387.3357,-288.6626C416.4661,-278.675 453.3225,-266.0385 484.2591,-255.4317"/>
<polygon fill="#000000" stroke="#000000" points="485.7538,-258.6193 494.0781,-252.0652 483.4835,-251.9977 485.7538,-258.6193"/>
</g>
<!-- [root] meta.count&#45;boundary (EachMode fixup)&#45;&gt;[root] aws_security_group_rule.ingress&#45;rule&#45;80 (expand) -->
<g id="edge16" class="edge">
<title>[root] meta.count&#45;boundary (EachMode fixup)&#45;&gt;[root] aws_security_group_rule.ingress&#45;rule&#45;80 (expand)</title>
<path fill="none" stroke="#000000" d="M434.3824,-290.9503C504.7542,-280.1007 600.3814,-265.3573 676.7056,-253.59"/>
<polygon fill="#000000" stroke="#000000" points="677.5154,-257.0065 686.8653,-252.0236 676.4487,-250.0883 677.5154,-257.0065"/>
</g>
<!-- [root] provider[&quot;registry.terraform.io/hashicorp/aws&quot;] (close) -->
<g id="node12" class="node">
<title>[root] provider[&quot;registry.terraform.io/hashicorp/aws&quot;] (close)</title>
<ellipse fill="none" stroke="#000000" cx="758.7682" cy="-306" rx="227.4596" ry="18"/>
<text text-anchor="middle" x="758.7682" y="-302.3" font-family="Times,serif" font-size="14.00" fill="#000000">[root] provider[&quot;registry.terraform.io/hashicorp/aws&quot;] (close)</text>
</g>
<!-- [root] provider[&quot;registry.terraform.io/hashicorp/aws&quot;] (close)&#45;&gt;[root] aws_instance.webserver (expand) -->
<g id="edge17" class="edge">
<title>[root] provider[&quot;registry.terraform.io/hashicorp/aws&quot;] (close)&#45;&gt;[root] aws_instance.webserver (expand)</title>
<path fill="none" stroke="#000000" d="M595.8949,-293.4263C454.8284,-282.137 260.3798,-265.5169 166.9673,-252.0487"/>
<polygon fill="#000000" stroke="#000000" points="167.3027,-248.5601 156.896,-250.5478 166.2709,-255.4837 167.3027,-248.5601"/>
</g>
<!-- [root] provider[&quot;registry.terraform.io/hashicorp/aws&quot;] (close)&#45;&gt;[root] aws_internet_gateway.gw (expand) -->
<g id="edge18" class="edge">
<title>[root] provider[&quot;registry.terraform.io/hashicorp/aws&quot;] (close)&#45;&gt;[root] aws_internet_gateway.gw (expand)</title>
<path fill="none" stroke="#000000" d="M821.8572,-288.6626C858.9875,-278.4588 906.1787,-265.4903 945.2764,-254.7459"/>
<polygon fill="#000000" stroke="#000000" points="946.316,-258.09 955.031,-252.0652 944.461,-251.3402 946.316,-258.09"/>
</g>
<!-- [root] provider[&quot;registry.terraform.io/hashicorp/aws&quot;] (close)&#45;&gt;[root] aws_security_group_rule.egress&#45;rule&#45;all (expand) -->
<g id="edge19" class="edge">
<title>[root] provider[&quot;registry.terraform.io/hashicorp/aws&quot;] (close)&#45;&gt;[root] aws_security_group_rule.egress&#45;rule&#45;all (expand)</title>
<path fill="none" stroke="#000000" d="M654.8358,-289.9762C585.1434,-279.2313 492.9181,-265.0124 418.8592,-253.5943"/>
<polygon fill="#000000" stroke="#000000" points="418.9506,-250.0671 408.534,-252.0024 417.8839,-256.9854 418.9506,-250.0671"/>
</g>
<!-- [root] provider[&quot;registry.terraform.io/hashicorp/aws&quot;] (close)&#45;&gt;[root] aws_security_group_rule.ingress&#45;rule&#45;22 (expand) -->
<g id="edge20" class="edge">
<title>[root] provider[&quot;registry.terraform.io/hashicorp/aws&quot;] (close)&#45;&gt;[root] aws_security_group_rule.ingress&#45;rule&#45;22 (expand)</title>
<path fill="none" stroke="#000000" d="M706.9072,-288.3868C677.5951,-278.4318 640.7329,-265.9125 609.7665,-255.3956"/>
<polygon fill="#000000" stroke="#000000" points="610.5311,-251.959 599.9367,-252.0572 608.2799,-258.5872 610.5311,-251.959"/>
</g>
<!-- [root] provider[&quot;registry.terraform.io/hashicorp/aws&quot;] (close)&#45;&gt;[root] aws_security_group_rule.ingress&#45;rule&#45;80 (expand) -->
<g id="edge21" class="edge">
<title>[root] provider[&quot;registry.terraform.io/hashicorp/aws&quot;] (close)&#45;&gt;[root] aws_security_group_rule.ingress&#45;rule&#45;80 (expand)</title>
<path fill="none" stroke="#000000" d="M770.1236,-287.8314C775.2008,-279.7079 781.2909,-269.9637 786.8859,-261.0118"/>
<polygon fill="#000000" stroke="#000000" points="789.9279,-262.7483 792.26,-252.4133 783.9919,-259.0383 789.9279,-262.7483"/>
</g>
<!-- [root] root -->
<g id="node13" class="node">
<title>[root] root</title>
<ellipse fill="none" stroke="#000000" cx="547.7682" cy="-378" rx="47.3916" ry="18"/>
<text text-anchor="middle" x="547.7682" y="-374.3" font-family="Times,serif" font-size="14.00" fill="#000000">[root] root</text>
</g>
<!-- [root] root&#45;&gt;[root] meta.count&#45;boundary (EachMode fixup) -->
<g id="edge22" class="edge">
<title>[root] root&#45;&gt;[root] meta.count&#45;boundary (EachMode fixup)</title>
<path fill="none" stroke="#000000" d="M512.4516,-365.9488C481.1127,-355.255 434.6526,-339.4013 397.3805,-326.6828"/>
<polygon fill="#000000" stroke="#000000" points="398.2204,-323.2713 387.6259,-323.3543 395.9597,-329.8963 398.2204,-323.2713"/>
</g>
<!-- [root] root&#45;&gt;[root] provider[&quot;registry.terraform.io/hashicorp/aws&quot;] (close) -->
<g id="edge23" class="edge">
<title>[root] root&#45;&gt;[root] provider[&quot;registry.terraform.io/hashicorp/aws&quot;] (close)</title>
<path fill="none" stroke="#000000" d="M583.0849,-365.9488C614.2084,-355.3285 660.246,-339.619 697.3862,-326.9455"/>
<polygon fill="#000000" stroke="#000000" points="698.779,-330.1685 707.1128,-323.6265 696.5183,-323.5436 698.779,-330.1685"/>
</g>
</g>
</svg>
